<svg xmlns="http://www.w3.org/2000/svg" xmlns:xlink="http://www.w3.org/1999/xlink" width="1200" zoomAndPan="magnify" viewBox="0 0 900 374.999991" height="500" preserveAspectRatio="xMidYMid meet" version="1.0"><defs><g/></defs><g fill="#f5f1ec" fill-opacity="1"><g transform="translate(16.765319, 227.623243)"><g><path d="M 57.03125 -14.890625 C 57.03125 -8.878906 57.257812 -3.914062 57.71875 0 C 53.28125 -0.195312 45.800781 -0.296875 35.28125 -0.296875 C 21.039062 -0.296875 10.390625 -0.195312 3.328125 0 L 3.328125 -1.953125 C 5.484375 -2.085938 7.066406 -2.347656 8.078125 -2.734375 C 9.097656 -3.128906 9.785156 -3.878906 10.140625 -4.984375 C 10.503906 -6.097656 10.6875 -7.898438 10.6875 -10.390625 L 10.6875 -59 C 10.6875 -61.476562 10.503906 -63.269531 10.140625 -64.375 C 9.785156 -65.488281 9.097656 -66.242188 8.078125 -66.640625 C 7.066406 -67.035156 5.484375 -67.296875 3.328125 -67.421875 L 3.328125 -69.390625 C 10.390625 -69.191406 21.039062 -69.09375 35.28125 -69.09375 C 44.882812 -69.09375 51.710938 -69.191406 55.765625 -69.390625 C 55.304688 -63.960938 55.078125 -59.125 55.078125 -54.875 C 55.078125 -52 55.175781 -49.78125 55.375 -48.21875 L 53.109375 -48.21875 C 52.128906 -55.207031 50.363281 -60.101562 47.8125 -62.90625 C 45.269531 -65.71875 41.679688 -67.125 37.046875 -67.125 L 33.03125 -67.125 C 31 -67.125 29.523438 -66.960938 28.609375 -66.640625 C 27.703125 -66.316406 27.082031 -65.679688 26.75 -64.734375 C 26.425781 -63.785156 26.265625 -62.265625 26.265625 -60.171875 L 26.265625 -35.875 L 29.40625 -35.875 C 32.863281 -35.875 35.488281 -37.144531 37.28125 -39.6875 C 39.082031 -42.238281 40.34375 -45.273438 41.0625 -48.796875 L 43.3125 -48.796875 C 43.113281 -46.054688 43.015625 -42.988281 43.015625 -39.59375 L 43.015625 -34.890625 C 43.015625 -31.554688 43.210938 -26.914062 43.609375 -20.96875 L 41.359375 -20.96875 C 39.984375 -29.59375 36 -33.90625 29.40625 -33.90625 L 26.265625 -33.90625 L 26.265625 -9.21875 C 26.265625 -7.125 26.425781 -5.601562 26.75 -4.65625 C 27.082031 -3.707031 27.703125 -3.066406 28.609375 -2.734375 C 29.523438 -2.410156 31 -2.25 33.03125 -2.25 L 37.828125 -2.25 C 42.460938 -2.25 46.203125 -3.832031 49.046875 -7 C 51.890625 -10.175781 53.898438 -15.550781 55.078125 -23.125 L 57.328125 -23.125 C 57.128906 -20.96875 57.03125 -18.222656 57.03125 -14.890625 Z M 57.03125 -14.890625 "/></g></g></g><g fill="#f5f1ec" fill-opacity="1"><g transform="translate(88.692301, 227.623243)"><g><path d="M 87.609375 -67.421875 C 85.390625 -67.296875 83.789062 -67.035156 82.8125 -66.640625 C 81.832031 -66.242188 81.160156 -65.488281 80.796875 -64.375 C 80.441406 -63.269531 80.265625 -61.476562 80.265625 -59 L 80.265625 -10.390625 C 80.265625 -7.898438 80.441406 -6.097656 80.796875 -4.984375 C 81.160156 -3.878906 81.847656 -3.128906 82.859375 -2.734375 C 83.867188 -2.347656 85.453125 -2.085938 87.609375 -1.953125 L 87.609375 0 C 84.015625 -0.195312 78.882812 -0.296875 72.21875 -0.296875 C 65.226562 -0.296875 60.066406 -0.195312 56.734375 0 L 56.734375 -1.953125 C 59.085938 -2.085938 60.800781 -2.347656 61.875 -2.734375 C 62.957031 -3.128906 63.695312 -3.878906 64.09375 -4.984375 C 64.488281 -6.097656 64.6875 -7.898438 64.6875 -10.390625 L 64.6875 -61.640625 L 41.0625 0.09375 L 39.5 0.09375 L 13.03125 -63.015625 L 13.03125 -16.078125 C 13.03125 -12.222656 13.222656 -9.394531 13.609375 -7.59375 C 14.003906 -5.800781 14.851562 -4.492188 16.15625 -3.671875 C 17.46875 -2.859375 19.597656 -2.285156 22.546875 -1.953125 L 22.546875 0 C 19.992188 -0.195312 16.460938 -0.296875 11.953125 -0.296875 C 8.359375 -0.296875 5.519531 -0.195312 3.4375 0 L 3.4375 -1.953125 C 5.582031 -2.285156 7.160156 -2.84375 8.171875 -3.625 C 9.191406 -4.40625 9.878906 -5.644531 10.234375 -7.34375 C 10.597656 -9.039062 10.78125 -11.554688 10.78125 -14.890625 L 10.78125 -59 C 10.78125 -61.476562 10.597656 -63.269531 10.234375 -64.375 C 9.878906 -65.488281 9.191406 -66.242188 8.171875 -66.640625 C 7.160156 -67.035156 5.582031 -67.296875 3.4375 -67.421875 L 3.4375 -69.390625 C 5.519531 -69.191406 8.359375 -69.09375 11.953125 -69.09375 C 17.960938 -69.09375 23.125 -69.191406 27.4375 -69.390625 L 47.234375 -21.65625 L 65.265625 -69.09375 L 72.21875 -69.09375 C 78.882812 -69.09375 84.015625 -69.191406 87.609375 -69.390625 Z M 87.609375 -67.421875 "/></g></g></g><g fill="#f5f1ec" fill-opacity="1"><g transform="translate(189.330986, 227.623243)"><g><path d="M 38.21875 -36.453125 C 46.707031 -35.796875 52.945312 -33.832031 56.9375 -30.5625 C 60.925781 -27.300781 62.921875 -23.453125 62.921875 -19.015625 C 62.921875 -12.929688 60.535156 -8.238281 55.765625 -4.9375 C 50.992188 -1.644531 44.363281 0 35.875 0 C 33.976562 0 32.375 -0.03125 31.0625 -0.09375 C 26.75 -0.226562 22.535156 -0.296875 18.421875 -0.296875 C 11.691406 -0.296875 6.660156 -0.195312 3.328125 0 L 3.328125 -1.953125 C 5.484375 -2.085938 7.066406 -2.347656 8.078125 -2.734375 C 9.097656 -3.128906 9.785156 -3.878906 10.140625 -4.984375 C 10.503906 -6.097656 10.6875 -7.898438 10.6875 -10.390625 L 10.6875 -59 C 10.6875 -61.476562 10.503906 -63.269531 10.140625 -64.375 C 9.785156 -65.488281 9.097656 -66.242188 8.078125 -66.640625 C 7.066406 -67.035156 5.484375 -67.296875 3.328125 -67.421875 L 3.328125 -69.390625 C 6.660156 -69.191406 11.628906 -69.09375 18.234375 -69.09375 L 29.109375 -69.1875 C 30.410156 -69.25 31.910156 -69.28125 33.609375 -69.28125 C 41.453125 -69.28125 47.445312 -67.875 51.59375 -65.0625 C 55.738281 -62.257812 57.8125 -58.539062 57.8125 -53.90625 C 57.8125 -50.113281 56.160156 -46.582031 52.859375 -43.3125 C 49.566406 -40.050781 44.6875 -37.832031 38.21875 -36.65625 Z M 32.34375 -67.421875 C 30.570312 -67.421875 29.28125 -67.191406 28.46875 -66.734375 C 27.65625 -66.273438 27.082031 -65.457031 26.75 -64.28125 C 26.425781 -63.113281 26.265625 -61.351562 26.265625 -59 L 26.265625 -36.84375 L 30.484375 -36.84375 C 34.722656 -36.84375 37.691406 -38.296875 39.390625 -41.203125 C 41.085938 -44.109375 41.9375 -47.984375 41.9375 -52.828125 C 41.9375 -57.722656 41.171875 -61.378906 39.640625 -63.796875 C 38.109375 -66.210938 35.675781 -67.421875 32.34375 -67.421875 Z M 33.03125 -2.25 C 42.101562 -2.25 46.640625 -7.96875 46.640625 -19.40625 C 46.640625 -24.5625 45.332031 -28.476562 42.71875 -31.15625 C 40.113281 -33.84375 36 -35.1875 30.375 -35.1875 L 26.265625 -35.1875 L 26.265625 -10.390625 C 26.265625 -8.035156 26.425781 -6.300781 26.75 -5.1875 C 27.082031 -4.082031 27.722656 -3.316406 28.671875 -2.890625 C 29.617188 -2.460938 31.070312 -2.25 33.03125 -2.25 Z M 33.03125 -2.25 "/></g></g></g><g fill="#f5f1ec" fill-opacity="1"><g transform="translate(264.981657, 227.623243)"><g><path d="M 57.03125 -14.890625 C 57.03125 -8.878906 57.257812 -3.914062 57.71875 0 C 53.28125 -0.195312 45.800781 -0.296875 35.28125 -0.296875 C 21.039062 -0.296875 10.390625 -0.195312 3.328125 0 L 3.328125 -1.953125 C 5.484375 -2.085938 7.066406 -2.347656 8.078125 -2.734375 C 9.097656 -3.128906 9.785156 -3.878906 10.140625 -4.984375 C 10.503906 -6.097656 10.6875 -7.898438 10.6875 -10.390625 L 10.6875 -59 C 10.6875 -61.476562 10.503906 -63.269531 10.140625 -64.375 C 9.785156 -65.488281 9.097656 -66.242188 8.078125 -66.640625 C 7.066406 -67.035156 5.484375 -67.296875 3.328125 -67.421875 L 3.328125 -69.390625 C 10.390625 -69.191406 21.039062 -69.09375 35.28125 -69.09375 C 44.882812 -69.09375 51.710938 -69.191406 55.765625 -69.390625 C 55.304688 -63.960938 55.078125 -59.125 55.078125 -54.875 C 55.078125 -52 55.175781 -49.78125 55.375 -48.21875 L 53.109375 -48.21875 C 52.128906 -55.207031 50.363281 -60.101562 47.8125 -62.90625 C 45.269531 -65.71875 41.679688 -67.125 37.046875 -67.125 L 33.03125 -67.125 C 31 -67.125 29.523438 -66.960938 28.609375 -66.640625 C 27.703125 -66.316406 27.082031 -65.679688 26.75 -64.734375 C 26.425781 -63.785156 26.265625 -62.265625 26.265625 -60.171875 L 26.265625 -35.875 L 29.40625 -35.875 C 32.863281 -35.875 35.488281 -37.144531 37.28125 -39.6875 C 39.082031 -42.238281 40.34375 -45.273438 41.0625 -48.796875 L 43.3125 -48.796875 C 43.113281 -46.054688 43.015625 -42.988281 43.015625 -39.59375 L 43.015625 -34.890625 C 43.015625 -31.554688 43.210938 -26.914062 43.609375 -20.96875 L 41.359375 -20.96875 C 39.984375 -29.59375 36 -33.90625 29.40625 -33.90625 L 26.265625 -33.90625 L 26.265625 -9.21875 C 26.265625 -7.125 26.425781 -5.601562 26.75 -4.65625 C 27.082031 -3.707031 27.703125 -3.066406 28.609375 -2.734375 C 29.523438 -2.410156 31 -2.25 33.03125 -2.25 L 37.828125 -2.25 C 42.460938 -2.25 46.203125 -3.832031 49.046875 -7 C 51.890625 -10.175781 53.898438 -15.550781 55.078125 -23.125 L 57.328125 -23.125 C 57.128906 -20.96875 57.03125 -18.222656 57.03125 -14.890625 Z M 57.03125 -14.890625 "/></g></g></g><g fill="#f5f1ec" fill-opacity="1"><g transform="translate(336.908639, 227.623243)"><g><path d="M 69.78125 -4.3125 C 68.007812 -2.289062 66.109375 -0.835938 64.078125 0.046875 C 62.054688 0.929688 59.609375 1.375 56.734375 1.375 C 52.953125 1.375 49.960938 0.570312 47.765625 -1.03125 C 45.578125 -2.632812 44.160156 -5.363281 43.515625 -9.21875 L 41.75 -19.015625 C 40.894531 -23.785156 39.863281 -27.296875 38.65625 -29.546875 C 37.445312 -31.796875 35.441406 -32.921875 32.640625 -32.921875 L 26.265625 -32.921875 L 26.265625 -10.390625 C 26.265625 -7.898438 26.441406 -6.097656 26.796875 -4.984375 C 27.160156 -3.878906 27.832031 -3.128906 28.8125 -2.734375 C 29.789062 -2.347656 31.390625 -2.085938 33.609375 -1.953125 L 33.609375 0 C 30.085938 -0.195312 25.15625 -0.296875 18.8125 -0.296875 C 11.820312 -0.296875 6.660156 -0.195312 3.328125 0 L 3.328125 -1.953125 C 5.484375 -2.085938 7.066406 -2.347656 8.078125 -2.734375 C 9.097656 -3.128906 9.785156 -3.878906 10.140625 -4.984375 C 10.503906 -6.097656 10.6875 -7.898438 10.6875 -10.390625 L 10.6875 -59 C 10.6875 -61.476562 10.503906 -63.269531 10.140625 -64.375 C 9.785156 -65.488281 9.097656 -66.242188 8.078125 -66.640625 C 7.066406 -67.035156 5.484375 -67.296875 3.328125 -67.421875 L 3.328125 -69.390625 C 6.660156 -69.191406 11.628906 -69.09375 18.234375 -69.09375 L 29.109375 -69.1875 C 30.410156 -69.25 31.910156 -69.28125 33.609375 -69.28125 C 42.628906 -69.28125 49.410156 -67.8125 53.953125 -64.875 C 58.492188 -61.9375 60.765625 -57.722656 60.765625 -52.234375 C 60.765625 -47.597656 59.0625 -43.515625 55.65625 -39.984375 C 52.257812 -36.453125 46.644531 -34.226562 38.8125 -33.3125 C 44.6875 -32.789062 49.0625 -31.515625 51.9375 -29.484375 C 54.8125 -27.460938 56.675781 -24.429688 57.53125 -20.390625 L 59.78125 -10.296875 C 60.300781 -7.679688 60.90625 -5.847656 61.59375 -4.796875 C 62.28125 -3.753906 63.242188 -3.234375 64.484375 -3.234375 C 65.265625 -3.296875 65.929688 -3.488281 66.484375 -3.8125 C 67.046875 -4.144531 67.6875 -4.703125 68.40625 -5.484375 Z M 32.34375 -67.421875 C 30.570312 -67.421875 29.28125 -67.191406 28.46875 -66.734375 C 27.65625 -66.273438 27.082031 -65.457031 26.75 -64.28125 C 26.425781 -63.113281 26.265625 -61.351562 26.265625 -59 L 26.265625 -34.890625 L 30.484375 -34.890625 C 35.835938 -34.890625 39.507812 -36.304688 41.5 -39.140625 C 43.488281 -41.984375 44.484375 -45.988281 44.484375 -51.15625 C 44.484375 -56.507812 43.535156 -60.554688 41.640625 -63.296875 C 39.753906 -66.046875 36.65625 -67.421875 32.34375 -67.421875 Z M 32.34375 -67.421875 "/></g></g></g><g fill="#f5f1ec" fill-opacity="1"><g transform="translate(414.519169, 227.623243)"><g/></g></g><g fill="#f5f1ec" fill-opacity="1"><g transform="translate(447.151308, 227.623243)"><g><path d="M 38.90625 -70.75 C 42.820312 -70.75 46.148438 -70.191406 48.890625 -69.078125 C 51.640625 -67.972656 54.320312 -66.410156 56.9375 -64.390625 C 57.65625 -63.796875 58.273438 -63.5 58.796875 -63.5 C 60.109375 -63.5 60.957031 -65.460938 61.34375 -69.390625 L 63.609375 -69.390625 C 63.335938 -64.941406 63.203125 -57.035156 63.203125 -45.671875 L 60.953125 -45.671875 C 60.367188 -50.503906 59.585938 -54.191406 58.609375 -56.734375 C 57.628906 -59.285156 55.960938 -61.507812 53.609375 -63.40625 C 51.972656 -64.976562 50.078125 -66.171875 47.921875 -66.984375 C 45.765625 -67.796875 43.507812 -68.203125 41.15625 -68.203125 C 34.5625 -68.203125 29.660156 -64.984375 26.453125 -58.546875 C 23.253906 -52.117188 21.65625 -44.101562 21.65625 -34.5 C 21.65625 -24.957031 23.320312 -16.984375 26.65625 -10.578125 C 29.988281 -4.179688 34.953125 -0.984375 41.546875 -0.984375 C 43.773438 -0.984375 45.984375 -1.390625 48.171875 -2.203125 C 50.359375 -3.023438 52.203125 -4.21875 53.703125 -5.78125 C 56.117188 -7.613281 57.800781 -9.898438 58.75 -12.640625 C 59.695312 -15.390625 60.429688 -19.410156 60.953125 -24.703125 L 63.203125 -24.703125 C 63.203125 -12.867188 63.335938 -4.632812 63.609375 0 L 61.34375 0 C 61.144531 -2.09375 60.863281 -3.578125 60.5 -4.453125 C 60.144531 -5.335938 59.644531 -5.78125 59 -5.78125 C 58.476562 -5.78125 57.789062 -5.519531 56.9375 -5 C 54 -2.90625 51.1875 -1.316406 48.5 -0.234375 C 45.820312 0.835938 42.59375 1.375 38.8125 1.375 C 31.882812 1.375 25.820312 -0.03125 20.625 -2.84375 C 15.4375 -5.65625 11.40625 -9.722656 8.53125 -15.046875 C 5.65625 -20.367188 4.21875 -26.722656 4.21875 -34.109375 C 4.21875 -41.296875 5.6875 -47.664062 8.625 -53.21875 C 11.5625 -58.769531 15.660156 -63.078125 20.921875 -66.140625 C 26.179688 -69.210938 32.175781 -70.75 38.90625 -70.75 Z M 38.90625 -70.75 "/></g></g></g><g fill="#f5f1ec" fill-opacity="1"><g transform="translate(526.035702, 227.623243)"><g><path d="M 38.90625 -70.75 C 45.832031 -70.75 51.890625 -69.34375 57.078125 -66.53125 C 62.273438 -63.726562 66.3125 -59.664062 69.1875 -54.34375 C 72.0625 -49.019531 73.5 -42.664062 73.5 -35.28125 C 73.5 -28.09375 72.03125 -21.722656 69.09375 -16.171875 C 66.15625 -10.617188 62.054688 -6.304688 56.796875 -3.234375 C 51.535156 -0.160156 45.539062 1.375 38.8125 1.375 C 31.882812 1.375 25.820312 -0.03125 20.625 -2.84375 C 15.4375 -5.65625 11.40625 -9.722656 8.53125 -15.046875 C 5.65625 -20.367188 4.21875 -26.722656 4.21875 -34.109375 C 4.21875 -41.296875 5.6875 -47.664062 8.625 -53.21875 C 11.5625 -58.769531 15.660156 -63.078125 20.921875 -66.140625 C 26.179688 -69.210938 32.175781 -70.75 38.90625 -70.75 Z M 38.515625 -68.984375 C 34.921875 -68.984375 31.75 -67.53125 29 -64.625 C 26.257812 -61.71875 24.15625 -57.648438 22.6875 -52.421875 C 21.21875 -47.203125 20.484375 -41.226562 20.484375 -34.5 C 20.484375 -27.695312 21.316406 -21.710938 22.984375 -16.546875 C 24.648438 -11.390625 26.898438 -7.40625 29.734375 -4.59375 C 32.578125 -1.789062 35.734375 -0.390625 39.203125 -0.390625 C 42.796875 -0.390625 45.960938 -1.84375 48.703125 -4.75 C 51.453125 -7.65625 53.5625 -11.722656 55.03125 -16.953125 C 56.5 -22.179688 57.234375 -28.160156 57.234375 -34.890625 C 57.234375 -41.679688 56.398438 -47.65625 54.734375 -52.8125 C 53.066406 -57.976562 50.8125 -61.960938 47.96875 -64.765625 C 45.125 -67.578125 41.972656 -68.984375 38.515625 -68.984375 Z M 38.515625 -68.984375 "/></g></g></g><g fill="#f5f1ec" fill-opacity="1"><g transform="translate(613.543447, 227.623243)"><g><path d="M 55.765625 -69.390625 C 55.304688 -63.828125 55.078125 -58.859375 55.078125 -54.484375 C 55.078125 -51.410156 55.175781 -48.929688 55.375 -47.046875 L 53.109375 -47.046875 C 51.804688 -54.421875 49.847656 -59.609375 47.234375 -62.609375 C 44.617188 -65.617188 40.960938 -67.125 36.265625 -67.125 L 33.03125 -67.125 C 31 -67.125 29.523438 -66.960938 28.609375 -66.640625 C 27.703125 -66.316406 27.082031 -65.679688 26.75 -64.734375 C 26.425781 -63.785156 26.265625 -62.265625 26.265625 -60.171875 L 26.265625 -35.46875 L 29.6875 -35.46875 C 33.15625 -35.46875 35.785156 -36.742188 37.578125 -39.296875 C 39.378906 -41.847656 40.640625 -44.882812 41.359375 -48.40625 L 43.609375 -48.40625 C 43.410156 -45.664062 43.3125 -42.597656 43.3125 -39.203125 L 43.3125 -34.5 C 43.3125 -31.164062 43.507812 -26.523438 43.90625 -20.578125 L 41.65625 -20.578125 C 40.28125 -29.203125 36.289062 -33.515625 29.6875 -33.515625 L 26.265625 -33.515625 L 26.265625 -10.96875 C 26.265625 -8.363281 26.539062 -6.457031 27.09375 -5.25 C 27.65625 -4.039062 28.632812 -3.238281 30.03125 -2.84375 C 31.4375 -2.445312 33.675781 -2.21875 36.75 -2.15625 L 36.75 0 C 28.71875 -0.195312 22.738281 -0.296875 18.8125 -0.296875 C 15.550781 -0.296875 11.4375 -0.226562 6.46875 -0.09375 L 3.328125 0 L 3.328125 -1.953125 C 5.484375 -2.085938 7.066406 -2.347656 8.078125 -2.734375 C 9.097656 -3.128906 9.785156 -3.878906 10.140625 -4.984375 C 10.503906 -6.097656 10.6875 -7.898438 10.6875 -10.390625 L 10.6875 -59 C 10.6875 -61.476562 10.503906 -63.269531 10.140625 -64.375 C 9.785156 -65.488281 9.097656 -66.242188 8.078125 -66.640625 C 7.066406 -67.035156 5.484375 -67.296875 3.328125 -67.421875 L 3.328125 -69.390625 C 10.390625 -69.191406 21.039062 -69.09375 35.28125 -69.09375 C 44.882812 -69.09375 51.710938 -69.191406 55.765625 -69.390625 Z M 55.765625 -69.390625 "/></g></g></g><g fill="#f5f1ec" fill-opacity="1"><g transform="translate(681.354768, 227.623243)"><g><path d="M 55.765625 -69.390625 C 55.304688 -63.828125 55.078125 -58.859375 55.078125 -54.484375 C 55.078125 -51.410156 55.175781 -48.929688 55.375 -47.046875 L 53.109375 -47.046875 C 51.804688 -54.421875 49.847656 -59.609375 47.234375 -62.609375 C 44.617188 -65.617188 40.960938 -67.125 36.265625 -67.125 L 33.03125 -67.125 C 31 -67.125 29.523438 -66.960938 28.609375 -66.640625 C 27.703125 -66.316406 27.082031 -65.679688 26.75 -64.734375 C 26.425781 -63.785156 26.265625 -62.265625 26.265625 -60.171875 L 26.265625 -35.46875 L 29.6875 -35.46875 C 33.15625 -35.46875 35.785156 -36.742188 37.578125 -39.296875 C 39.378906 -41.847656 40.640625 -44.882812 41.359375 -48.40625 L 43.609375 -48.40625 C 43.410156 -45.664062 43.3125 -42.597656 43.3125 -39.203125 L 43.3125 -34.5 C 43.3125 -31.164062 43.507812 -26.523438 43.90625 -20.578125 L 41.65625 -20.578125 C 40.28125 -29.203125 36.289062 -33.515625 29.6875 -33.515625 L 26.265625 -33.515625 L 26.265625 -10.96875 C 26.265625 -8.363281 26.539062 -6.457031 27.09375 -5.25 C 27.65625 -4.039062 28.632812 -3.238281 30.03125 -2.84375 C 31.4375 -2.445312 33.675781 -2.21875 36.75 -2.15625 L 36.75 0 C 28.71875 -0.195312 22.738281 -0.296875 18.8125 -0.296875 C 15.550781 -0.296875 11.4375 -0.226562 6.46875 -0.09375 L 3.328125 0 L 3.328125 -1.953125 C 5.484375 -2.085938 7.066406 -2.347656 8.078125 -2.734375 C 9.097656 -3.128906 9.785156 -3.878906 10.140625 -4.984375 C 10.503906 -6.097656 10.6875 -7.898438 10.6875 -10.390625 L 10.6875 -59 C 10.6875 -61.476562 10.503906 -63.269531 10.140625 -64.375 C 9.785156 -65.488281 9.097656 -66.242188 8.078125 -66.640625 C 7.066406 -67.035156 5.484375 -67.296875 3.328125 -67.421875 L 3.328125 -69.390625 C 10.390625 -69.191406 21.039062 -69.09375 35.28125 -69.09375 C 44.882812 -69.09375 51.710938 -69.191406 55.765625 -69.390625 Z M 55.765625 -69.390625 "/></g></g></g><g fill="#f5f1ec" fill-opacity="1"><g transform="translate(749.166089, 227.623243)"><g><path d="M 57.03125 -14.890625 C 57.03125 -8.878906 57.257812 -3.914062 57.71875 0 C 53.28125 -0.195312 45.800781 -0.296875 35.28125 -0.296875 C 21.039062 -0.296875 10.390625 -0.195312 3.328125 0 L 3.328125 -1.953125 C 5.484375 -2.085938 7.066406 -2.347656 8.078125 -2.734375 C 9.097656 -3.128906 9.785156 -3.878906 10.140625 -4.984375 C 10.503906 -6.097656 10.6875 -7.898438 10.6875 -10.390625 L 10.6875 -59 C 10.6875 -61.476562 10.503906 -63.269531 10.140625 -64.375 C 9.785156 -65.488281 9.097656 -66.242188 8.078125 -66.640625 C 7.066406 -67.035156 5.484375 -67.296875 3.328125 -67.421875 L 3.328125 -69.390625 C 10.390625 -69.191406 21.039062 -69.09375 35.28125 -69.09375 C 44.882812 -69.09375 51.710938 -69.191406 55.765625 -69.390625 C 55.304688 -63.960938 55.078125 -59.125 55.078125 -54.875 C 55.078125 -52 55.175781 -49.78125 55.375 -48.21875 L 53.109375 -48.21875 C 52.128906 -55.207031 50.363281 -60.101562 47.8125 -62.90625 C 45.269531 -65.71875 41.679688 -67.125 37.046875 -67.125 L 33.03125 -67.125 C 31 -67.125 29.523438 -66.960938 28.609375 -66.640625 C 27.703125 -66.316406 27.082031 -65.679688 26.75 -64.734375 C 26.425781 -63.785156 26.265625 -62.265625 26.265625 -60.171875 L 26.265625 -35.875 L 29.40625 -35.875 C 32.863281 -35.875 35.488281 -37.144531 37.28125 -39.6875 C 39.082031 -42.238281 40.34375 -45.273438 41.0625 -48.796875 L 43.3125 -48.796875 C 43.113281 -46.054688 43.015625 -42.988281 43.015625 -39.59375 L 43.015625 -34.890625 C 43.015625 -31.554688 43.210938 -26.914062 43.609375 -20.96875 L 41.359375 -20.96875 C 39.984375 -29.59375 36 -33.90625 29.40625 -33.90625 L 26.265625 -33.90625 L 26.265625 -9.21875 C 26.265625 -7.125 26.425781 -5.601562 26.75 -4.65625 C 27.082031 -3.707031 27.703125 -3.066406 28.609375 -2.734375 C 29.523438 -2.410156 31 -2.25 33.03125 -2.25 L 37.828125 -2.25 C 42.460938 -2.25 46.203125 -3.832031 49.046875 -7 C 51.890625 -10.175781 53.898438 -15.550781 55.078125 -23.125 L 57.328125 -23.125 C 57.128906 -20.96875 57.03125 -18.222656 57.03125 -14.890625 Z M 57.03125 -14.890625 "/></g></g></g><g fill="#f5f1ec" fill-opacity="1"><g transform="translate(821.093025, 227.623243)"><g><path d="M 57.03125 -14.890625 C 57.03125 -8.878906 57.257812 -3.914062 57.71875 0 C 53.28125 -0.195312 45.800781 -0.296875 35.28125 -0.296875 C 21.039062 -0.296875 10.390625 -0.195312 3.328125 0 L 3.328125 -1.953125 C 5.484375 -2.085938 7.066406 -2.347656 8.078125 -2.734375 C 9.097656 -3.128906 9.785156 -3.878906 10.140625 -4.984375 C 10.503906 -6.097656 10.6875 -7.898438 10.6875 -10.390625 L 10.6875 -59 C 10.6875 -61.476562 10.503906 -63.269531 10.140625 -64.375 C 9.785156 -65.488281 9.097656 -66.242188 8.078125 -66.640625 C 7.066406 -67.035156 5.484375 -67.296875 3.328125 -67.421875 L 3.328125 -69.390625 C 10.390625 -69.191406 21.039062 -69.09375 35.28125 -69.09375 C 44.882812 -69.09375 51.710938 -69.191406 55.765625 -69.390625 C 55.304688 -63.960938 55.078125 -59.125 55.078125 -54.875 C 55.078125 -52 55.175781 -49.78125 55.375 -48.21875 L 53.109375 -48.21875 C 52.128906 -55.207031 50.363281 -60.101562 47.8125 -62.90625 C 45.269531 -65.71875 41.679688 -67.125 37.046875 -67.125 L 33.03125 -67.125 C 31 -67.125 29.523438 -66.960938 28.609375 -66.640625 C 27.703125 -66.316406 27.082031 -65.679688 26.75 -64.734375 C 26.425781 -63.785156 26.265625 -62.265625 26.265625 -60.171875 L 26.265625 -35.875 L 29.40625 -35.875 C 32.863281 -35.875 35.488281 -37.144531 37.28125 -39.6875 C 39.082031 -42.238281 40.34375 -45.273438 41.0625 -48.796875 L 43.3125 -48.796875 C 43.113281 -46.054688 43.015625 -42.988281 43.015625 -39.59375 L 43.015625 -34.890625 C 43.015625 -31.554688 43.210938 -26.914062 43.609375 -20.96875 L 41.359375 -20.96875 C 39.984375 -29.59375 36 -33.90625 29.40625 -33.90625 L 26.265625 -33.90625 L 26.265625 -9.21875 C 26.265625 -7.125 26.425781 -5.601562 26.75 -4.65625 C 27.082031 -3.707031 27.703125 -3.066406 28.609375 -2.734375 C 29.523438 -2.410156 31 -2.25 33.03125 -2.25 L 37.828125 -2.25 C 42.460938 -2.25 46.203125 -3.832031 49.046875 -7 C 51.890625 -10.175781 53.898438 -15.550781 55.078125 -23.125 L 57.328125 -23.125 C 57.128906 -20.96875 57.03125 -18.222656 57.03125 -14.890625 Z M 57.03125 -14.890625 "/></g></g></g></svg>